<svg xmlns="http://www.w3.org/2000/svg" width="174" height="348" viewBox="0 0 174 348">
  <path id="Decorator1" d="M107.413-13.245A174,174,0,0,0,174,0V-115.537a58.463,58.463,0,0,1-22.373-4.45A58.463,58.463,0,0,1,132.66-132.66a58.463,58.463,0,0,1-12.673-18.967A58.463,58.463,0,0,1,115.537-174a58.463,58.463,0,0,1,4.45-22.373A58.463,58.463,0,0,1,132.66-215.34a58.463,58.463,0,0,1,18.967-12.673A58.463,58.463,0,0,1,174-232.463V-348a174,174,0,0,0-66.587,13.245,174,174,0,0,0-56.45,37.719,174,174,0,0,0-37.718,56.45A174,174,0,0,0,0-174a174,174,0,0,0,13.245,66.587,174,174,0,0,0,37.718,56.45A174,174,0,0,0,107.413-13.245Z" transform="translate(174) rotate(180)" fill="#1e5afa" opacity="0.1"/>
</svg>
