<svg xmlns="http://www.w3.org/2000/svg" width="15" height="15" viewBox="0 0 15 15">
  <path id="insta" d="M7.5,3.652A3.848,3.848,0,1,0,11.346,7.5,3.843,3.843,0,0,0,7.5,3.652ZM7.5,10A2.5,2.5,0,1,1,10,7.5,2.506,2.506,0,0,1,7.5,10ZM11.5,2.6a.9.9,0,1,0,.344.068A.9.9,0,0,0,11.5,2.6ZM15,7.5c0-1.036.009-2.062-.049-3.1A4.46,4.46,0,0,0,13.74,1.26,4.455,4.455,0,0,0,10.6.049C9.56-.009,8.534,0,7.5,0S5.438-.009,4.4.049A4.46,4.46,0,0,0,1.26,1.26,4.455,4.455,0,0,0,.049,4.4C-.009,5.44,0,6.466,0,7.5s-.009,2.062.049,3.1A4.46,4.46,0,0,0,1.26,13.74,4.455,4.455,0,0,0,4.4,14.951C5.44,15.009,6.466,15,7.5,15s2.062.009,3.1-.049a4.46,4.46,0,0,0,3.145-1.21A4.455,4.455,0,0,0,14.95,10.6c.06-1.034.049-2.06.049-3.1Zm-1.651,4.424a2.56,2.56,0,0,1-1.426,1.426,16.519,16.519,0,0,1-4.424.3,16.611,16.611,0,0,1-4.426-.3,2.56,2.56,0,0,1-1.426-1.426,16.618,16.618,0,0,1-.3-4.426,16.612,16.612,0,0,1,.3-4.426,2.384,2.384,0,0,1,.567-.859,2.425,2.425,0,0,1,.859-.567,16.611,16.611,0,0,1,4.426-.3,16.611,16.611,0,0,1,4.426.3,2.384,2.384,0,0,1,.859.567,2.4,2.4,0,0,1,.567.859,16.612,16.612,0,0,1,.3,4.426A16.52,16.52,0,0,1,13.348,11.924Z" fill="#fafafa"/>
</svg>
