<svg xmlns="http://www.w3.org/2000/svg" width="706.145" height="1306.585" viewBox="0 0 706.145 1306.585">
  <path id="line" d="M106.35,0C24.559,15.238-78.883,171.626,93.521,258.241c22.72,8.822,80.348,15.238,129.1-29.674,60.943-56.139-16.038-170.022-101.037-121.1S75.077,280.7,179.322,306.36s148.348,30.476,179.621,64.961,69.763,92.229,44.1,174.834S238.661,673.671,269.934,524.5c80.188-137.942,173.505-154.784,201.272-154.784,24.388,0,184.432,6.416,106.65,209.319C511.567,655.492,379.289,824.445,358.942,887c-14.7,46.833-29.442,141.5,0,202.5C392.015,1158.022,465.5,1259,705.5,1306" transform="translate(0.351 0.292)" fill="none" stroke="#7c43ff" stroke-linecap="round" stroke-width="0.5"/>
</svg>
