<svg xmlns="http://www.w3.org/2000/svg" width="18.205" height="18.173" viewBox="0 0 18.205 18.173">
  <g id="linkdin" transform="translate(0 -167)">
    <path id="Vector" d="M4.376,2.188A2.188,2.188,0,1,1,2.188,0,2.188,2.188,0,0,1,4.376,2.188Z" transform="translate(0 167)" fill="#fafafa"/>
    <path id="Vector-2" data-name="Vector" d="M6.142.3V12.439H9.911v-6c0-1.584.3-3.118,2.262-3.118,1.937,0,1.961,1.811,1.961,3.218v5.9h3.771V5.783c0-3.27-.7-5.783-4.526-5.783A3.963,3.963,0,0,0,9.811,1.96H9.76V.3ZM0,.3H3.775V12.439H0Z" transform="translate(0.3 172.733)" fill="#fafafa"/>
  </g>
</svg>
