<svg id="logo-main" xmlns="http://www.w3.org/2000/svg" xmlns:xlink="http://www.w3.org/1999/xlink" width="207" height="62" viewBox="0 0 207 62">
  <defs>
    <linearGradient id="linear-gradient" x1="0.167" y1="0.167" x2="0.874" y2="0.874" gradientUnits="objectBoundingBox">
      <stop offset="0.29" stop-color="#f7d440"/>
      <stop offset="1" stop-color="#d5a52c"/>
    </linearGradient>
  </defs>
  <g id="Layer_2" data-name="Layer 2" transform="translate(0.029 0.029)">
    <g id="Layer_1" data-name="Layer 1" transform="translate(-0.206 -0.206)">
      <circle id="Ellipse_1" data-name="Ellipse 1" cx="31" cy="31" r="31" transform="translate(0.177 0.177)" fill="url(#linear-gradient)"/>
      <rect id="Rectangle_1" data-name="Rectangle 1" width="8.767" height="4.053" transform="translate(13.823 21.891)" fill="#1b207f"/>
      <path id="Path_1" data-name="Path 1" d="M18.383,22.021V38.093H11.571V22.021h6.812m.971-.971H10.6V39.116h8.754Z" transform="translate(3.223 6.306)" fill="#1b207f"/>
      <rect id="Rectangle_2" data-name="Rectangle 2" width="4.688" height="12.173" transform="translate(15.805 30.27)" fill="none" stroke="#1b207f" stroke-miterlimit="10" stroke-width="0.75"/>
      <rect id="Rectangle_3" data-name="Rectangle 3" width="8.767" height="4.053" transform="translate(41.757 21.891)" fill="#1b207f"/>
      <path id="Path_2" data-name="Path 2" d="M32.17,21.053V32.462l.971-.4V22.024h6.825v7.187l.971-.4V21.04Z" transform="translate(9.587 6.303)" fill="#1b207f"/>
      <path id="Path_3" data-name="Path 3" d="M33.32,22.93v8.353l.971-.4v-6.8h3.717v5.245l.971-.4v-6Z" transform="translate(9.926 6.861)" fill="#1b207f"/>
      <path id="Path_4" data-name="Path 4" d="M27.212,11.806l-.6-.376-.557.35-7.9,4.947V41.954H20.4l1.684-.7V30.169h9.065v7.252L35.034,35.8V16.727Zm-.6,11.2A2.979,2.979,0,1,1,29.6,20.029a2.979,2.979,0,0,1-2.979,2.979Z" transform="translate(5.454 3.468)" fill="#1b207f"/>
      <path id="Path_5" data-name="Path 5" d="M24.821,26.79v8.12L22.14,36.024V26.79Z" transform="translate(6.628 8)" fill="#1b207f"/>
      <path id="Path_6" data-name="Path 6" d="M27.871,26.79v6.488l-2.681,1.1V26.79Z" transform="translate(7.528 8)" fill="#1b207f"/>
      <rect id="Rectangle_4" data-name="Rectangle 4" width="1.153" height="8.081" transform="translate(31.513 8.85)" fill="#1b207f"/>
      <path id="Path_7" data-name="Path 7" d="M31.308,14.3,24.25,9.447V5.95l7.058,4.856Z" transform="translate(7.25 1.851)" fill="#1b207f"/>
      <path id="Path_8" data-name="Path 8" d="M9.87,38.311l10.749.492L47.789,27.51,20.567,46.146Z" transform="translate(3.008 8.212)" fill="#1fac4b"/>
      <path id="Path_9" data-name="Path 9" d="M32.92,27.56v2.577" transform="translate(9.808 8.227)" fill="none"/>
      <path id="Path_10" data-name="Path 10" d="M38.19,25.73v2.1" transform="translate(11.363 7.687)" fill="none"/>
      <path id="Path_11" data-name="Path 11" d="M32.17,30.093l1.489-.622.971-.4" transform="translate(9.587 8.672)" fill="none"/>
      <path id="Path_12" data-name="Path 12" d="M36.94,28.115l.971-.4,1.619-.673" transform="translate(10.994 8.074)" fill="none"/>
      <line id="Line_1" data-name="Line 1" y2="1.813" transform="translate(47.934 35.398)" fill="none"/>
      <line id="Line_2" data-name="Line 2" y2="1.968" transform="translate(44.218 36.797)" fill="none"/>
    </g>
  </g>
  <g id="LOGO_WHITE" data-name="LOGO WHITE" transform="translate(77 17)">
    <text id="HAZRI_XPERT" data-name="HAZRI XPERT" transform="translate(0 22)" fill="#fafafa" font-size="20" font-family="HoboStd, Hobo Std"><tspan x="0" y="0">HAZRI XPERT</tspan></text>
  </g>
</svg>
