<svg xmlns="http://www.w3.org/2000/svg" width="17" height="15" viewBox="0 0 17 15">
  <path id="twitter" d="M17,1.782a6.556,6.556,0,0,1-2.006.586A3.735,3.735,0,0,0,16.526.282a6.556,6.556,0,0,1-2.211.914A3.491,3.491,0,0,0,13.157.31,3.24,3.24,0,0,0,11.77,0,3.642,3.642,0,0,0,8.287,3.786a4.706,4.706,0,0,0,.086.868A9.666,9.666,0,0,1,1.189.692,4.008,4.008,0,0,0,.715,2.6,3.881,3.881,0,0,0,2.268,5.756,3.306,3.306,0,0,1,.693,5.274v.047A3.721,3.721,0,0,0,3.485,9.036a3.415,3.415,0,0,1-.917.129,4.275,4.275,0,0,1-.658-.058,3.54,3.54,0,0,0,3.257,2.625A6.639,6.639,0,0,1,.842,13.349,6.564,6.564,0,0,1,0,13.3,9.306,9.306,0,0,0,5.351,15c6.407,0,9.913-5.765,9.913-10.768,0-.164,0-.328-.01-.493A7.889,7.889,0,0,0,17,1.782Z" fill="#fafafa"/>
</svg>
